<svg xmlns="http://www.w3.org/2000/svg" xmlns:xlink="http://www.w3.org/1999/xlink" width="500" zoomAndPan="magnify" viewBox="0 0 375 187.499995" height="250" preserveAspectRatio="xMidYMid meet" version="1.0"><defs><g/><clipPath id="fae92bb907"><path d="M 180.816406 14.167969 L 191.691406 14.167969 L 191.691406 57.640625 L 180.816406 57.640625 Z M 180.816406 14.167969 " clip-rule="nonzero"/></clipPath><clipPath id="46c3ddf5a8"><path d="M 164.515625 30.460938 L 207.988281 30.460938 L 207.988281 41.335938 L 164.515625 41.335938 Z M 164.515625 30.460938 " clip-rule="nonzero"/></clipPath><clipPath id="4325912180"><path d="M 167 16 L 206 16 L 206 56 L 167 56 Z M 167 16 " clip-rule="nonzero"/></clipPath><clipPath id="8d8d9ebefc"><path d="M 167.039062 24.375 L 175.089844 16.328125 L 205.949219 47.1875 L 197.898438 55.234375 Z M 167.039062 24.375 " clip-rule="nonzero"/></clipPath><clipPath id="94997d3de4"><path d="M 167.039062 24.375 L 174.730469 16.6875 L 205.46875 47.425781 L 197.777344 55.117188 Z M 167.039062 24.375 " clip-rule="nonzero"/></clipPath><clipPath id="70171f948b"><path d="M 167 16 L 206 16 L 206 56 L 167 56 Z M 167 16 " clip-rule="nonzero"/></clipPath><clipPath id="26274cdc35"><path d="M 197.773438 16.6875 L 205.824219 24.738281 L 174.964844 55.597656 L 166.917969 47.546875 Z M 197.773438 16.6875 " clip-rule="nonzero"/></clipPath><clipPath id="b598a3b04d"><path d="M 197.773438 16.6875 L 205.464844 24.378906 L 174.726562 55.117188 L 167.035156 47.429688 Z M 197.773438 16.6875 " clip-rule="nonzero"/></clipPath><clipPath id="a6becd4275"><path d="M 179.125 28.773438 L 193.378906 28.773438 L 193.378906 43.03125 L 179.125 43.03125 Z M 179.125 28.773438 " clip-rule="nonzero"/></clipPath><clipPath id="2d7a9f1d09"><path d="M 189.203125 28.773438 L 193.378906 32.953125 L 193.378906 38.855469 L 189.203125 43.03125 L 183.300781 43.03125 L 179.125 38.855469 L 179.125 32.953125 L 183.300781 28.773438 L 189.203125 28.773438 " clip-rule="nonzero"/></clipPath></defs><g fill="#ffffff" fill-opacity="1"><g transform="translate(19.156776, 120.482709)"><g><path d="M 70.808594 -49.546875 C 61.378906 -49.546875 57.050781 -43.675781 55.125 -35.019531 L 52.335938 -35.019531 C 50.894531 -43.484375 47.042969 -49.546875 37.90625 -49.546875 C 28.476562 -49.546875 24.050781 -43.675781 22.128906 -35.019531 L 18.277344 -35.019531 L 21.164062 -43.675781 L 21.164062 -48.585938 L 5.773438 -48.585938 L 5.773438 0 L 21.164062 0 L 21.164062 -17.027344 C 21.164062 -28.765625 23.089844 -36.078125 31.460938 -36.078125 C 37.136719 -36.078125 38.675781 -33.480469 38.675781 -24.242188 L 38.675781 0 L 54.066406 0 L 54.066406 -17.027344 C 54.066406 -28.765625 55.992188 -36.078125 64.363281 -36.078125 C 70.039062 -36.078125 71.578125 -33.480469 71.578125 -24.242188 L 71.578125 0 L 86.96875 0 L 86.96875 -25.300781 C 86.96875 -38.386719 83.21875 -49.546875 70.808594 -49.546875 Z M 70.808594 -49.546875 "/></g></g></g><g fill="#ffffff" fill-opacity="1"><g transform="translate(110.929099, 120.482709)"><g><path d="M 45.21875 0 L 45.21875 -13.46875 L 31.746094 -13.46875 L 31.746094 -63.304688 C 31.746094 -68.691406 28.765625 -71.578125 23.378906 -71.386719 L 4.808594 -70.710938 L 4.808594 -57.242188 L 16.355469 -57.820312 L 16.355469 -13.46875 L 2.886719 -13.46875 L 2.886719 0 Z M 45.21875 0 "/></g></g></g><g fill="#ffffff" fill-opacity="1"><g transform="translate(158.055711, 120.482709)"><g/></g></g><g fill="#ffffff" fill-opacity="1"><g transform="translate(184.990984, 120.482709)"><g/></g></g><g fill="#ffffff" fill-opacity="1"><g transform="translate(211.919488, 120.482709)"><g><path d="M 3.847656 -13.277344 C 3.847656 -8.273438 6.445312 0.960938 21.550781 0.960938 C 35.113281 0.960938 39.828125 -5.867188 41.65625 -13.949219 L 45.503906 -13.949219 L 43.101562 -8.175781 L 43.101562 -7.214844 C 43.101562 -2.597656 45.699219 0 50.316406 0 L 60.996094 0 L 60.996094 -13.46875 L 53.972656 -13.46875 L 53.972656 -27.128906 C 53.972656 -43.101562 42.234375 -49.546875 28.863281 -49.546875 C 15.296875 -49.546875 4.808594 -42.332031 4.808594 -30.015625 L 19.242188 -30.015625 C 19.242188 -34.441406 22.703125 -37.039062 28.863281 -37.039062 C 35.5 -37.039062 38.578125 -34.632812 38.578125 -30.691406 L 23.28125 -28.574219 C 8.851562 -26.554688 3.847656 -21.644531 3.847656 -13.277344 Z M 19.242188 -16.164062 C 19.242188 -18.953125 21.550781 -19.625 26.167969 -20.300781 L 38.578125 -22.03125 C 38.578125 -16.066406 33 -12.507812 24.53125 -12.507812 C 21.933594 -12.507812 19.242188 -13.371094 19.242188 -16.164062 Z M 19.242188 -16.164062 "/></g></g></g><g fill="#ffffff" fill-opacity="1"><g transform="translate(273.870606, 120.482709)"><g><path d="M 70.808594 -49.546875 C 61.378906 -49.546875 57.050781 -43.675781 55.125 -35.019531 L 52.335938 -35.019531 C 50.894531 -43.484375 47.042969 -49.546875 37.90625 -49.546875 C 28.476562 -49.546875 24.050781 -43.675781 22.128906 -35.019531 L 18.277344 -35.019531 L 21.164062 -43.675781 L 21.164062 -48.585938 L 5.773438 -48.585938 L 5.773438 0 L 21.164062 0 L 21.164062 -17.027344 C 21.164062 -28.765625 23.089844 -36.078125 31.460938 -36.078125 C 37.136719 -36.078125 38.675781 -33.480469 38.675781 -24.242188 L 38.675781 0 L 54.066406 0 L 54.066406 -17.027344 C 54.066406 -28.765625 55.992188 -36.078125 64.363281 -36.078125 C 70.039062 -36.078125 71.578125 -33.480469 71.578125 -24.242188 L 71.578125 0 L 86.96875 0 L 86.96875 -25.300781 C 86.96875 -38.386719 83.21875 -49.546875 70.808594 -49.546875 Z M 70.808594 -49.546875 "/></g></g></g><g fill="#ffffff" fill-opacity="1"><g transform="translate(156.868588, 139.278491)"><g><path d="M 19.144531 0.960938 C 40.886719 2.210938 46.660156 -6.832031 46.660156 -25.976562 L 46.660156 -60.609375 C 46.660156 -65.902344 43.773438 -68.980469 38.480469 -68.789062 L 10.871094 -67.824219 L 10.871094 -54.355469 L 31.265625 -55.320312 L 31.265625 -31.171875 C 31.265625 -19.53125 30.402344 -11.832031 19.144531 -12.507812 L 1.925781 -13.46875 L 1.925781 0 Z M 19.144531 0.960938 "/></g></g></g><g clip-path="url(#fae92bb907)"><path fill="#ffffff" d="M 180.816406 14.167969 L 191.566406 14.167969 L 191.566406 57.808594 L 180.816406 57.808594 Z M 180.816406 14.167969 " fill-opacity="1" fill-rule="nonzero"/></g><g clip-path="url(#46c3ddf5a8)"><path fill="#ffffff" d="M 164.515625 41.335938 L 164.515625 30.585938 L 208.15625 30.585938 L 208.15625 41.335938 Z M 164.515625 41.335938 " fill-opacity="1" fill-rule="nonzero"/></g><g clip-path="url(#4325912180)"><g clip-path="url(#8d8d9ebefc)"><g clip-path="url(#94997d3de4)"><path fill="#ffffff" d="M 167.039062 24.375 L 174.640625 16.773438 L 205.5 47.632812 L 197.898438 55.234375 Z M 167.039062 24.375 " fill-opacity="1" fill-rule="nonzero"/></g></g></g><g clip-path="url(#70171f948b)"><g clip-path="url(#26274cdc35)"><g clip-path="url(#b598a3b04d)"><path fill="#ffffff" d="M 197.773438 16.6875 L 205.378906 24.292969 L 174.519531 55.152344 L 166.917969 47.546875 Z M 197.773438 16.6875 " fill-opacity="1" fill-rule="nonzero"/></g></g></g><g clip-path="url(#a6becd4275)"><g clip-path="url(#2d7a9f1d09)"><path fill="#150f53" d="M 179.125 28.773438 L 193.378906 28.773438 L 193.378906 43.03125 L 179.125 43.03125 Z M 179.125 28.773438 " fill-opacity="1" fill-rule="nonzero"/></g></g></svg>