<svg xmlns="http://www.w3.org/2000/svg" xmlns:xlink="http://www.w3.org/1999/xlink" width="500" zoomAndPan="magnify" viewBox="0 0 375 187.499995" height="250" preserveAspectRatio="xMidYMid meet" version="1.0"><defs><g/><clipPath id="2b87c0291c"><path d="M 58.351562 25.722656 L 70.203125 25.722656 L 70.203125 73.105469 L 58.351562 73.105469 Z M 58.351562 25.722656 " clip-rule="nonzero"/></clipPath><clipPath id="3908173f27"><path d="M 40.585938 43.480469 L 87.96875 43.480469 L 87.96875 55.335938 L 40.585938 55.335938 Z M 40.585938 43.480469 " clip-rule="nonzero"/></clipPath><clipPath id="8ac9a759b8"><path d="M 43 28 L 86 28 L 86 71 L 43 71 Z M 43 28 " clip-rule="nonzero"/></clipPath><clipPath id="76d70cae8b"><path d="M 43.335938 36.851562 L 52.109375 28.078125 L 85.746094 61.710938 L 76.96875 70.484375 Z M 43.335938 36.851562 " clip-rule="nonzero"/></clipPath><clipPath id="25e75039f3"><path d="M 43.335938 36.851562 L 51.71875 28.46875 L 85.222656 61.972656 L 76.839844 70.355469 Z M 43.335938 36.851562 " clip-rule="nonzero"/></clipPath><clipPath id="f7ce48e922"><path d="M 43 28 L 86 28 L 86 71 L 43 71 Z M 43 28 " clip-rule="nonzero"/></clipPath><clipPath id="ea52fa74ca"><path d="M 76.835938 28.472656 L 85.609375 37.25 L 51.976562 70.882812 L 43.199219 62.109375 Z M 76.835938 28.472656 " clip-rule="nonzero"/></clipPath><clipPath id="b2ebde097e"><path d="M 76.835938 28.472656 L 85.21875 36.855469 L 51.714844 70.359375 L 43.332031 61.976562 Z M 76.835938 28.472656 " clip-rule="nonzero"/></clipPath><clipPath id="00b996fe23"><path d="M 56.507812 41.648438 L 72.046875 41.648438 L 72.046875 57.183594 L 56.507812 57.183594 Z M 56.507812 41.648438 " clip-rule="nonzero"/></clipPath><clipPath id="6642f93fc2"><path d="M 67.496094 41.648438 L 72.046875 46.199219 L 72.046875 52.632812 L 67.496094 57.183594 L 61.0625 57.183594 L 56.507812 52.632812 L 56.507812 46.199219 L 61.0625 41.648438 L 67.496094 41.648438 " clip-rule="nonzero"/></clipPath></defs><g fill="#ffffff" fill-opacity="1"><g transform="translate(9.828374, 138.397402)"><g><path d="M 77.175781 -54.003906 C 66.898438 -54.003906 62.179688 -47.605469 60.082031 -38.167969 L 57.042969 -38.167969 C 55.46875 -47.394531 51.277344 -54.003906 41.3125 -54.003906 C 31.039062 -54.003906 26.214844 -47.605469 24.117188 -38.167969 L 19.921875 -38.167969 L 23.070312 -47.605469 L 23.070312 -52.953125 L 6.292969 -52.953125 L 6.292969 0 L 23.070312 0 L 23.070312 -18.558594 C 23.070312 -31.351562 25.167969 -39.320312 34.289062 -39.320312 C 40.476562 -39.320312 42.152344 -36.492188 42.152344 -26.425781 L 42.152344 0 L 58.929688 0 L 58.929688 -18.558594 C 58.929688 -31.351562 61.027344 -39.320312 70.148438 -39.320312 C 76.335938 -39.320312 78.015625 -36.492188 78.015625 -26.425781 L 78.015625 0 L 94.792969 0 L 94.792969 -27.578125 C 94.792969 -41.839844 90.703125 -54.003906 77.175781 -54.003906 Z M 77.175781 -54.003906 "/></g></g></g><g fill="#ffffff" fill-opacity="1"><g transform="translate(109.854557, 138.397402)"><g><path d="M 49.285156 0 L 49.285156 -14.679688 L 34.601562 -14.679688 L 34.601562 -68.996094 C 34.601562 -74.867188 31.351562 -78.015625 25.480469 -77.804688 L 5.242188 -77.070312 L 5.242188 -62.390625 L 17.824219 -63.019531 L 17.824219 -14.679688 L 3.144531 -14.679688 L 3.144531 0 Z M 49.285156 0 "/></g></g></g><g fill="#ffffff" fill-opacity="1"><g transform="translate(161.23068, 138.397402)"><g><path d="M 21.601562 -58.195312 C 27.789062 -58.195312 31.667969 -61.132812 31.667969 -66.585938 C 31.667969 -71.933594 27.789062 -74.972656 21.601562 -74.972656 C 15.414062 -74.972656 11.746094 -71.933594 11.746094 -66.585938 C 11.746094 -61.132812 15.414062 -58.195312 21.601562 -58.195312 Z M 19.921875 20.972656 L 29.570312 3.984375 C 30.933594 1.46875 31.351562 -0.417969 31.351562 -3.144531 L 31.351562 -44.984375 C 31.351562 -50.75 28.101562 -53.898438 22.335938 -53.6875 L 1.046875 -52.953125 L 1.046875 -38.273438 L 13.945312 -38.902344 L 13.945312 -4.402344 C 13.945312 -1.679688 13.527344 0.523438 12.164062 2.726562 L 1.046875 20.972656 Z M 19.921875 20.972656 "/></g></g></g><g fill="#ffffff" fill-opacity="1"><g transform="translate(197.613373, 138.397402)"><g><path d="M 4.195312 -14.46875 C 4.195312 -9.019531 7.027344 1.046875 23.488281 1.046875 C 38.273438 1.046875 43.410156 -6.394531 45.402344 -15.203125 L 49.597656 -15.203125 L 46.976562 -8.914062 L 46.976562 -7.863281 C 46.976562 -2.832031 49.808594 0 54.839844 0 L 66.480469 0 L 66.480469 -14.679688 L 58.824219 -14.679688 L 58.824219 -29.570312 C 58.824219 -46.976562 46.03125 -54.003906 31.457031 -54.003906 C 16.671875 -54.003906 5.242188 -46.136719 5.242188 -32.714844 L 20.972656 -32.714844 C 20.972656 -37.539062 24.746094 -40.371094 31.457031 -40.371094 C 38.691406 -40.371094 42.046875 -37.75 42.046875 -33.449219 L 25.375 -31.144531 C 9.648438 -28.941406 4.195312 -23.59375 4.195312 -14.46875 Z M 20.972656 -17.617188 C 20.972656 -20.65625 23.488281 -21.390625 28.523438 -22.125 L 42.046875 -24.011719 C 42.046875 -17.511719 35.964844 -13.632812 26.738281 -13.632812 C 23.90625 -13.632812 20.972656 -14.574219 20.972656 -17.617188 Z M 20.972656 -17.617188 "/></g></g></g><g fill="#ffffff" fill-opacity="1"><g transform="translate(265.136278, 138.397402)"><g><path d="M 77.175781 -54.003906 C 66.898438 -54.003906 62.179688 -47.605469 60.082031 -38.167969 L 57.042969 -38.167969 C 55.46875 -47.394531 51.277344 -54.003906 41.3125 -54.003906 C 31.039062 -54.003906 26.214844 -47.605469 24.117188 -38.167969 L 19.921875 -38.167969 L 23.070312 -47.605469 L 23.070312 -52.953125 L 6.292969 -52.953125 L 6.292969 0 L 23.070312 0 L 23.070312 -18.558594 C 23.070312 -31.351562 25.167969 -39.320312 34.289062 -39.320312 C 40.476562 -39.320312 42.152344 -36.492188 42.152344 -26.425781 L 42.152344 0 L 58.929688 0 L 58.929688 -18.558594 C 58.929688 -31.351562 61.027344 -39.320312 70.148438 -39.320312 C 76.335938 -39.320312 78.015625 -36.492188 78.015625 -26.425781 L 78.015625 0 L 94.792969 0 L 94.792969 -27.578125 C 94.792969 -41.839844 90.703125 -54.003906 77.175781 -54.003906 Z M 77.175781 -54.003906 "/></g></g></g><g clip-path="url(#2b87c0291c)"><path fill="#ffffff" d="M 58.351562 25.722656 L 70.070312 25.722656 L 70.070312 73.289062 L 58.351562 73.289062 Z M 58.351562 25.722656 " fill-opacity="1" fill-rule="nonzero"/></g><g clip-path="url(#3908173f27)"><path fill="#ffffff" d="M 40.585938 55.335938 L 40.585938 43.617188 L 88.152344 43.617188 L 88.152344 55.335938 Z M 40.585938 55.335938 " fill-opacity="1" fill-rule="nonzero"/></g><g clip-path="url(#8ac9a759b8)"><g clip-path="url(#76d70cae8b)"><g clip-path="url(#25e75039f3)"><path fill="#ffffff" d="M 43.335938 36.851562 L 51.621094 28.5625 L 85.257812 62.199219 L 76.96875 70.484375 Z M 43.335938 36.851562 " fill-opacity="1" fill-rule="nonzero"/></g></g></g><g clip-path="url(#f7ce48e922)"><g clip-path="url(#ea52fa74ca)"><g clip-path="url(#b2ebde097e)"><path fill="#ffffff" d="M 76.835938 28.472656 L 85.121094 36.761719 L 51.488281 70.394531 L 43.199219 62.109375 Z M 76.835938 28.472656 " fill-opacity="1" fill-rule="nonzero"/></g></g></g><g clip-path="url(#00b996fe23)"><g clip-path="url(#6642f93fc2)"><path fill="#1e1c1c" d="M 56.507812 41.648438 L 72.046875 41.648438 L 72.046875 57.183594 L 56.507812 57.183594 Z M 56.507812 41.648438 " fill-opacity="1" fill-rule="nonzero"/></g></g></svg>